<?xml version="1.0" encoding="UTF-8"?>
<svg id="katman_2" data-name="katman 2" xmlns="http://www.w3.org/2000/svg" viewBox="0 0 1631.71 555.38">
  <defs>
    <style>
      .cls-1 {
        fill: #fff;
      }
    </style>
  </defs>
  <g id="katman_1" data-name="katman 1">
    <g>
      <g>
        <path class="cls-1" d="M373.94.98c29.13,3.24,36.89,14.89,51.13,35.6,6.47,8.41,22.01,18.77,3.88,31.72-11.65,7.77-22.01,5.83-29.77-1.29-42.07-40.78-181.23,12.3-227.19,47.25-75.08,58.25,114.56,31.07,146.28,23.95,9.06-1.94,20.07-5.18,28.48-5.83,15.53-1.29,26.54,4.53,25.24,20.71-1.29,15.53-10.36,25.89-25.89,29.13-77.02,15.53-154.69,22.01-208.42,63.43-157.28,120.39-73.79,194.82,42.72,189,79.61-4.53,162.46-47.9,216.18-112.62,36.25-44.01,67.32-1.94,45.31,36.89-40.13,67.32-126.22,105.5-197.41,123.63-81.55,21.36-185.12,7.12-227.84-55.02-56.31-84.14,40.78-185.76,132.69-227.84C7.6,144.03,225.07-13.9,373.94.98Z"/>
        <path class="cls-1" d="M908.59,316.85c-12.95,51.13-128.8,144.34-148.87,69.9-6.47-26.54-1.29-53.72,1.94-78.32,6.47-51.78-14.24-39.48-44.01,0-28.48,36.89-51.78,86.08-74.43,85.44-29.13-.65-26.54-45.96-20.71-82.2,7.77-45.95-14.89-36.89-38.19,1.3-27.18,42.07-31.72,99.68-69.9,104.21-55.02,6.47,1.29-174.11,39.48-180.58,14.89-2.59,16.18,23.95,16.18,36.25,73.79-60.19,104.21-33.66,96.44,42.72,22.01-24.6,40.78-49.84,68.61-69.26,44.66-31.72,75.08-21.36,77.02,26.54.65,17.48-.65,35.6-1.29,53.72-3.88,69.26,43.37,29.13,84.14-12.94,8.41-9.71,16.18-9.06,13.59,3.24Z"/>
        <path class="cls-1" d="M1150.66,371.86c-43.37,17.47-66.67-3.24-82.2-38.19-3.88-7.77-5.83-14.89-8.41-23.3-29.13,34.3-73.79,75.73-113.92,94.5-105.5,48.54-101.62-138.51,50.49-181.23,64.73-18.12,57.61,12.3,91.26,18.77,9.06,1.94,11,7.77,12.3,16.18,11,82.85,19.42,93.85,102.27,53.72,26.54-12.94,31.07-7.77,27.18,4.53-7.12,16.83-51.78,44.01-78.97,55.02ZM1050.99,268.95c-19.42-29.77-89.97,5.18-113.27,49.84-18.77,36.25-6.47,44.66,25.89,22.65,31.72-20.71,59.55-47.25,87.38-72.49Z"/>
        <path class="cls-1" d="M1358.43,263.12c3.24,5.83,4.53,9.06,9.06,11.65,10.36,5.18,17.48,7.12,11.65,20.07-11,23.95-44.01,32.36-58.9,12.3-4.53-5.83-8.41-12.95-11.65-20.07-10.36-23.3-27.83-16.83-43.37,11-16.83,30.42-20.71,75.08-29.77,99.03-9.06,22.65-37.54,20.71-38.19,1.94,0-34.3,21.36-95.15,29.77-131.39,1.29-7.77,3.88-20.06,14.24-22.65,5.83-1.29,17.48,3.88,22.01,6.47,66.02-55.02,73.14-33.66,95.15,11.65Z"/>
        <path class="cls-1" d="M1614.1,308.43c23.95-11.65,20.07,7.12,8.41,19.42-40.78,42.72-143.04,106.15-195.47,91.91-36.89-9.71-50.49-47.25-36.89-86.09,47.9-136.57,220.07-135.92,159.87-52.43-27.83,38.84-69.26,67.96-114.56,74.44-5.18,58.9,138.51-27.83,178.64-47.25ZM1515.72,263.77c-32.36-1.94-66.02,25.89-76.38,56.96,26.54-7.77,66.02-29.13,76.38-56.96Z"/>
      </g>
      <path class="cls-1" d="M1134.99,545.06c-34.78,17.21-301.41,8.67-365.43,4.32-14.63-.92-31.12-2.67-45.77-4.04-17.41-1.93-23.91-4.58-20.47-9.04,3.44-4.46,9.74-6.33,27.95-6.93,58.23-2.64,128.64,1.65,351.18,3.12,31.03.63,69.48,4.1,52.54,12.57ZM1261.95,529.79c62.2,4.43,46.54,21-13.66,20.55-76.62-.61-61.33-25.54,13.66-20.55Z"/>
      <path class="cls-1" d="M294.89,544.9c-64.89-4.19-48.02-16.87,14.9-15.8,80.08,1.4,63.35,20.57-14.9,15.8ZM428.07,534.58c36.88-12.94,315.35-3.09,382.15,1.06,15.27.89,32.45,2.45,47.73,3.69,18.14,1.71,24.86,3.85,21.13,7.27-3.74,3.42-10.38,4.8-29.43,5.04-60.96,1.35-134.43-2.83-367.03-6.66-32.42-.87-72.51-4.02-54.55-10.4Z"/>
    </g>
  </g>
</svg>