<?xml version="1.0" encoding="UTF-8"?>
<svg id="katman_1" data-name="katman 1" xmlns="http://www.w3.org/2000/svg" viewBox="0 0 1000 1000">
  <defs>
    <style>
      .cls-1 {
        fill: #fff;
      }

      .cls-2 {
        fill: #171b3d;
      }
    </style>
  </defs>
  <rect class="cls-2" width="1000" height="1000"/>
  <path class="cls-1" d="M634.38,279.56c26.21,2.91,33.2,13.4,46.02,32.04,5.83,7.57,19.81,16.89,3.49,28.54-10.49,6.99-19.81,5.24-26.79-1.16-37.86-36.7-163.1,11.07-204.46,42.52-67.57,52.43,103.1,27.96,131.65,21.55,8.16-1.75,18.06-4.66,25.63-5.24,13.98-1.16,23.88,4.08,22.72,18.64-1.16,13.98-9.32,23.3-23.3,26.21-69.32,13.98-139.22,19.81-187.57,57.09-141.55,108.35-66.41,175.34,38.45,170.09,71.65-4.08,146.21-43.11,194.56-101.36,32.62-39.61,60.58-1.75,40.78,33.2-36.12,60.58-113.59,94.95-177.67,111.26-73.4,19.22-166.6,6.41-205.04-49.51-50.68-75.73,36.7-167.18,119.41-205.04-127.57-50.1,68.15-192.23,202.13-178.83Z"/>
</svg>